<?xml version="1.0" encoding="UTF-8"?>
<svg width="" height="" viewBox="0 0 16 21" version="1.1" xmlns="http://www.w3.org/2000/svg" xmlns:xlink="http://www.w3.org/1999/xlink">
    <title>icon-lock-default</title>
    <desc>Created with Sketch.</desc>
    <g id="Page-1" stroke="none" stroke-width="1" fill="none" fill-rule="evenodd">
        <path d="M15.5589333,10.8827611 C15.3004606,10.6274753 14.9868121,10.5000479 14.617503,10.5000479 L4.42947879,10.5000479 L4.42947879,6.12508779 C4.42947879,5.15877519 4.77561212,4.33401667 5.46778182,3.65038127 C6.16,2.96688953 6.99510303,2.62507183 7.97338182,2.62507183 C8.95156364,2.62507183 9.78681212,2.96684164 10.4787394,3.65038127 C11.1709576,4.33401667 11.5170909,5.15882307 11.5170909,6.12508779 C11.5170909,6.36198499 11.604703,6.5670373 11.7798788,6.74019684 C11.9554424,6.91340427 12.1631515,7.00003192 12.4027636,7.00003192 L13.2891152,7.00003192 C13.5288727,7.00003192 13.7364848,6.91340427 13.9120485,6.74019684 C14.0868848,6.5670373 14.1748364,6.36198499 14.1748364,6.12508779 C14.1748364,4.43869775 13.5680485,2.9965795 12.3546667,1.79791897 C11.1410909,0.599210548 9.68058182,0 7.97338182,0 C6.26603636,0 4.80567273,0.599210548 3.592,1.79787108 C2.37852121,2.99638795 1.77178182,4.43864986 1.77178182,6.12503991 L1.77178182,10.5 L1.32887273,10.5 C0.959854545,10.5 0.646012121,10.6277147 0.387587879,10.8827132 C0.129163636,11.1377117 0,11.4477803 0,11.8123923 L0,19.687512 C0,20.0522676 0.129212121,20.3621925 0.387587879,20.6173347 C0.646012121,20.8723331 0.959854545,21 1.32887273,21 L14.617503,21 C14.9868121,21 15.3007515,20.8723331 15.5589333,20.6173347 C15.8171152,20.3621925 15.9465214,20.0522676 15.9465214,19.687512 L15.9465214,11.8124401 C15.9467152,11.4478282 15.8174545,11.1380948 15.5589333,10.8827611 Z" id="icon-lock-default" fill="#2F035F" fill-rule="nonzero"></path>
    </g>
</svg>