<?xml version="1.0" encoding="UTF-8"?>
<svg width="" height="" viewBox="0 0 16 20" version="1.1" xmlns="http://www.w3.org/2000/svg" xmlns:xlink="http://www.w3.org/1999/xlink">
    <g id="Page-1" stroke="none" stroke-width="1" fill="none" fill-rule="evenodd">
        <g id="icon-lock-locked" fill="#FFAD00" fill-rule="nonzero">
            <path d="M15.610778,9.48865417 C15.3514432,9.22347872 15.0367486,9.0909905 14.6662078,9.0909905 L14.2220161,9.0909905 L14.2220161,6.363564 C14.2220161,4.62116727 13.6110639,3.12509017 12.3887705,1.87508396 C11.1665743,0.625027985 9.70386961,0 7.9999266,0 C6.29603223,0 4.83303562,0.625027985 3.61093677,1.8750342 C2.38864333,3.12509017 1.7776912,4.62111752 1.7776912,6.363564 L1.7776912,9.0909905 L1.33330488,9.0909905 C0.963055925,9.0909905 0.64816675,9.22347872 0.388880591,9.48865417 C0.129594433,9.75363062 0,10.075672 0,10.4546789 L0,18.6364111 C0,19.0150697 0.129643079,19.3372106 0.388880591,19.6024358 C0.64816675,19.8673625 0.963055925,20 1.33330488,20 L14.6665483,20 C15.0370891,20 15.3517351,19.8675118 15.6111185,19.6024358 C15.8701615,19.3372106 16,19.0150697 16,18.6364111 L16,10.4545296 C16.0001937,10.0758213 15.8701615,9.75382962 15.610778,9.48865417 Z M11.5554549,9.0909905 L4.44439826,9.0909905 L4.44439826,6.363564 C4.44439826,5.35982766 4.79168604,4.50275872 5.48611567,3.79265568 C6.18064259,3.08245315 7.01853092,2.7274265 8.00007254,2.7274265 C8.98171145,2.7274265 9.81940519,3.0824034 10.5139808,3.79265568 C11.2082158,4.50270897 11.5554549,5.35982766 11.5554549,6.363564 L11.5554549,9.0909905 Z" id="Shape"></path>
        </g>
    </g>
</svg>